<svg version="1.1" xmlns="http://www.w3.org/2000/svg" xmlns:xlink="http://www.w3.org/1999/xlink" width="296.47449" height="336.08101" viewBox="0,0,296.47449,336.08101"><defs><radialGradient cx="244.66666" cy="182.32085" r="167.0735" gradientUnits="userSpaceOnUse" id="color-1"><stop offset="0" stop-color="#c30000" stop-opacity="0"/><stop offset="1" stop-color="#c30000"/></radialGradient><linearGradient x1="226.72576" y1="181.91103" x2="243.51214" y2="159.8527" gradientUnits="userSpaceOnUse" id="color-2"><stop offset="0" stop-color="#c30000"/><stop offset="1" stop-color="#c30000" stop-opacity="0"/></linearGradient></defs><g transform="translate(-92.02738,-8.38013)"><g data-paper-data="{&quot;isPaintingLayer&quot;:true}" fill-rule="nonzero" stroke-width="25" stroke-linecap="round" stroke-linejoin="miter" stroke-miterlimit="10" stroke-dasharray="" stroke-dashoffset="0" style="mix-blend-mode: normal"><path d="M202.2217,233.52101c0,0 -59.89936,-54.14831 -36.35683,-92.34937c26.30273,-42.67991 61.02574,-14.93764 73.71907,-2.56434c1.38862,1.3536 4.44887,0.95293 4.44887,0.95293c0,0 3.09969,0.47276 4.45458,-1.08548c8.51844,-9.79699 19.47768,-23.5016 49.71603,-17.99646c78.79441,34.70028 -11.0976,113.99678 -11.0976,113.99678c0,0 -34.69226,34.979 -65.23427,52.4891c-0.32101,0.18402 -13.75093,10.40018 -22.2846,13.68764c-0.92678,0.35702 -8.95908,0.31838 -11.6699,0.33476c-3.65962,0.68644 -13.91181,-8.42053 -14.75917,-8.84259c-0.34555,-0.1721 -31.99387,-31.98531 -44.03085,-46.22042c-16.96464,-20.06261 -20.62959,-27.37447 -25.93682,-62.01263c-5.30723,-34.63817 0,-89.67977 0,-89.67977c0,0 65.18356,-17.91406 90.41247,-30.15886c22.21933,-10.78411 53.08214,-39.48608 53.08214,-39.48608c0,0 28.59337,29.81427 50.58327,40.63952c13.89274,6.83915 40.70347,15.10812 61.62146,21.06434c9.60224,2.73416 14.14338,-3.6768 19.44262,-2.27933c3.78376,0.99782 9.82617,18.84415 9.82617,18.84415c0,0 1.84872,47.92722 -3.03159,74.37777c-4.88031,26.45055 -14.59757,58.0083 -47.49467,94.45001c-27.10969,30.03068 -76.56204,56.99831 -93.12281,65.55742c-3.53542,1.82723 -58.11914,-34.71011 -58.11914,-34.71011" fill="url(#color-1)" stroke="none"/><path d="M197.23342,228.78417c0,0 -54.76891,-52.44177 -33.24284,-89.43889c24.04988,-41.33479 55.7988,-14.46686 67.40495,-2.48351c1.26967,1.31095 4.06783,0.92288 4.06783,0.92288c0,0 2.83419,0.45787 4.07304,-1.05128c7.78883,-9.48824 17.80939,-22.76092 45.45781,-17.42929c72.04559,33.60666 -10.14709,110.40406 -10.14709,110.40406c0,0 -31.72083,33.87661 -59.64687,50.83485c-0.29351,0.17823 -12.57316,10.07239 -20.37589,13.25624c-0.84739,0.34577 -8.19174,0.30835 -10.67037,0.32422c-3.34617,0.66482 -12.72024,-8.15515 -13.49503,-8.5639c-0.31594,-0.16667 -29.25357,-30.97726 -40.25956,-44.76374c-15.5116,-19.43031 -18.86264,-26.51172 -23.71529,-60.05823c-4.85265,-33.54651 0,-86.85343 0,-86.85343c0,0 59.60051,-17.34947 82.66852,-29.20837c20.3162,-10.44424 48.5356,-38.24164 48.5356,-38.24164c0,0 26.14433,28.87465 46.25077,39.35872c22.69744,11.83511 83.10541,28.09128 83.10541,28.09128c0,0 1.69039,54.7687 -2.77192,80.38563c-4.46231,25.61692 -13.34728,56.18011 -43.42672,91.4733c-30.07943,35.29319 -90.24133,66.21806 -90.24133,66.21806" fill="none" stroke="#e60000"/><path d="M142.54099,110.47004c0,0 8.01737,-3.20949 13.01846,0.56126c20.60302,15.53438 158.22205,119.29702 158.22205,119.29702c0,0 -4.73172,5.63071 -6.10803,6.4677c-1.63892,0.99671 -4.46185,-0.88249 -4.46185,-0.88249" fill="none" stroke="url(#color-2)"/><path d="M108.44169,95.39507l214.19999,163.77464" fill="none" stroke="#e60000"/></g></g></svg>